<mxfile host="app.diagrams.net" modified="2023-11-13T00:54:08.395Z" agent="Mozilla/5.0 (Windows NT 10.0; Win64; x64) AppleWebKit/537.36 (KHTML, like Gecko) Chrome/118.0.0.0 Safari/537.36" etag="oHyH_1Zq0r3Q28AA5Fa2" version="22.1.0" type="device">
  <diagram name="ユースケース図" id="7VJe6vSNCe9DfJ-y-Tqd">
    <mxGraphModel dx="2603" dy="888" grid="1" gridSize="10" guides="1" tooltips="1" connect="1" arrows="1" fold="1" page="1" pageScale="1" pageWidth="1169" pageHeight="1654" math="0" shadow="0">
      <root>
        <mxCell id="0" />
        <mxCell id="1" parent="0" />
        <mxCell id="HBLjlnZqCEcEQzNPuWM3-1" value="&lt;div style=&quot;&quot;&gt;&lt;span style=&quot;background-color: initial;&quot;&gt;フードチェーン&lt;/span&gt;&lt;span style=&quot;background-color: initial;&quot;&gt;システム&lt;/span&gt;&lt;/div&gt;" style="rounded=0;whiteSpace=wrap;html=1;fillColor=none;align=center;verticalAlign=top;" parent="1" vertex="1">
          <mxGeometry x="240" y="160" width="760" height="2440" as="geometry" />
        </mxCell>
        <mxCell id="HBLjlnZqCEcEQzNPuWM3-68" value="予約管理" style="shape=folder;fontStyle=1;tabWidth=110;tabHeight=30;tabPosition=left;html=1;boundedLbl=1;labelInHeader=1;container=0;collapsible=0;whiteSpace=wrap;fillColor=none;" parent="1" vertex="1">
          <mxGeometry x="280" y="1070" width="680" height="1030" as="geometry" />
        </mxCell>
        <mxCell id="HBLjlnZqCEcEQzNPuWM3-60" value="出品管理" style="shape=folder;fontStyle=1;tabWidth=110;tabHeight=30;tabPosition=left;html=1;boundedLbl=1;labelInHeader=1;container=1;collapsible=0;whiteSpace=wrap;fillColor=none;" parent="1" vertex="1">
          <mxGeometry x="280" y="430" width="680" height="590" as="geometry" />
        </mxCell>
        <mxCell id="HBLjlnZqCEcEQzNPuWM3-61" value="" style="html=1;strokeColor=none;resizeWidth=1;resizeHeight=1;fillColor=none;part=1;connectable=0;allowArrows=0;deletable=0;whiteSpace=wrap;" parent="HBLjlnZqCEcEQzNPuWM3-60" vertex="1">
          <mxGeometry width="680" height="413" relative="1" as="geometry">
            <mxPoint y="30" as="offset" />
          </mxGeometry>
        </mxCell>
        <mxCell id="HBLjlnZqCEcEQzNPuWM3-37" value="&amp;lt;&amp;lt;include&amp;gt;&amp;gt;" style="text;html=1;strokeColor=none;fillColor=none;align=center;verticalAlign=middle;whiteSpace=wrap;rounded=0;" parent="HBLjlnZqCEcEQzNPuWM3-60" vertex="1">
          <mxGeometry x="130" y="160" width="60" height="30" as="geometry" />
        </mxCell>
        <mxCell id="HBLjlnZqCEcEQzNPuWM3-10" value="作物を出品する" style="ellipse;whiteSpace=wrap;html=1;" parent="HBLjlnZqCEcEQzNPuWM3-60" vertex="1">
          <mxGeometry x="40" y="50" width="120" height="80" as="geometry" />
        </mxCell>
        <mxCell id="HBLjlnZqCEcEQzNPuWM3-36" value="出品した作物を&lt;br&gt;閲覧する" style="ellipse;whiteSpace=wrap;html=1;" parent="HBLjlnZqCEcEQzNPuWM3-60" vertex="1">
          <mxGeometry x="40" y="210" width="120" height="80" as="geometry" />
        </mxCell>
        <mxCell id="HBLjlnZqCEcEQzNPuWM3-22" value="出品した作物の&lt;br&gt;一覧を見る" style="ellipse;whiteSpace=wrap;html=1;" parent="HBLjlnZqCEcEQzNPuWM3-60" vertex="1">
          <mxGeometry x="200" y="150" width="120" height="80" as="geometry" />
        </mxCell>
        <mxCell id="HBLjlnZqCEcEQzNPuWM3-23" value="出品した作物の&lt;br&gt;詳細を見る" style="ellipse;whiteSpace=wrap;html=1;" parent="HBLjlnZqCEcEQzNPuWM3-60" vertex="1">
          <mxGeometry x="200" y="270" width="120" height="80" as="geometry" />
        </mxCell>
        <mxCell id="HBLjlnZqCEcEQzNPuWM3-11" value="出品内容を&lt;br&gt;編集する" style="ellipse;whiteSpace=wrap;html=1;" parent="HBLjlnZqCEcEQzNPuWM3-60" vertex="1">
          <mxGeometry x="40" y="370" width="120" height="80" as="geometry" />
        </mxCell>
        <mxCell id="HBLjlnZqCEcEQzNPuWM3-24" value="作物の出品を&lt;br&gt;取りやめる" style="ellipse;whiteSpace=wrap;html=1;" parent="HBLjlnZqCEcEQzNPuWM3-60" vertex="1">
          <mxGeometry x="40" y="490" width="120" height="80" as="geometry" />
        </mxCell>
        <mxCell id="HBLjlnZqCEcEQzNPuWM3-14" value="出品された作物の&lt;br&gt;詳細を見る" style="ellipse;whiteSpace=wrap;html=1;" parent="HBLjlnZqCEcEQzNPuWM3-60" vertex="1">
          <mxGeometry x="360" y="270" width="120" height="80" as="geometry" />
        </mxCell>
        <mxCell id="HBLjlnZqCEcEQzNPuWM3-9" value="出品された作物の&lt;br&gt;一覧を見る" style="ellipse;whiteSpace=wrap;html=1;" parent="HBLjlnZqCEcEQzNPuWM3-60" vertex="1">
          <mxGeometry x="360" y="150" width="120" height="80" as="geometry" />
        </mxCell>
        <mxCell id="HBLjlnZqCEcEQzNPuWM3-48" value="出品されている&lt;br&gt;作物を&lt;br style=&quot;border-color: var(--border-color);&quot;&gt;閲覧する" style="ellipse;whiteSpace=wrap;html=1;" parent="HBLjlnZqCEcEQzNPuWM3-60" vertex="1">
          <mxGeometry x="520" y="210" width="120" height="80" as="geometry" />
        </mxCell>
        <mxCell id="HBLjlnZqCEcEQzNPuWM3-97" style="rounded=0;orthogonalLoop=1;jettySize=auto;html=1;exitX=0;exitY=0.5;exitDx=0;exitDy=0;dashed=1;endArrow=open;endFill=0;entryX=1;entryY=0;entryDx=0;entryDy=0;" parent="HBLjlnZqCEcEQzNPuWM3-60" source="HBLjlnZqCEcEQzNPuWM3-22" target="HBLjlnZqCEcEQzNPuWM3-36" edge="1">
          <mxGeometry relative="1" as="geometry">
            <mxPoint x="177.57359312880726" y="178.2842712474619" as="sourcePoint" />
            <mxPoint x="-20" y="290" as="targetPoint" />
          </mxGeometry>
        </mxCell>
        <mxCell id="HBLjlnZqCEcEQzNPuWM3-98" style="rounded=0;orthogonalLoop=1;jettySize=auto;html=1;exitX=0;exitY=0.5;exitDx=0;exitDy=0;dashed=1;endArrow=open;endFill=0;entryX=1;entryY=1;entryDx=0;entryDy=0;" parent="HBLjlnZqCEcEQzNPuWM3-60" source="HBLjlnZqCEcEQzNPuWM3-23" target="HBLjlnZqCEcEQzNPuWM3-36" edge="1">
          <mxGeometry relative="1" as="geometry">
            <mxPoint x="210" y="200" as="sourcePoint" />
            <mxPoint x="152" y="232" as="targetPoint" />
          </mxGeometry>
        </mxCell>
        <mxCell id="HBLjlnZqCEcEQzNPuWM3-99" value="&amp;lt;&amp;lt;include&amp;gt;&amp;gt;" style="text;html=1;strokeColor=none;fillColor=none;align=center;verticalAlign=middle;whiteSpace=wrap;rounded=0;" parent="HBLjlnZqCEcEQzNPuWM3-60" vertex="1">
          <mxGeometry x="130" y="300" width="60" height="30" as="geometry" />
        </mxCell>
        <mxCell id="HBLjlnZqCEcEQzNPuWM3-100" value="&amp;lt;&amp;lt;include&amp;gt;&amp;gt;" style="text;html=1;strokeColor=none;fillColor=none;align=center;verticalAlign=middle;whiteSpace=wrap;rounded=0;" parent="HBLjlnZqCEcEQzNPuWM3-60" vertex="1">
          <mxGeometry x="500" y="295" width="60" height="30" as="geometry" />
        </mxCell>
        <mxCell id="HBLjlnZqCEcEQzNPuWM3-101" value="&amp;lt;&amp;lt;include&amp;gt;&amp;gt;" style="text;html=1;strokeColor=none;fillColor=none;align=center;verticalAlign=middle;whiteSpace=wrap;rounded=0;" parent="HBLjlnZqCEcEQzNPuWM3-60" vertex="1">
          <mxGeometry x="500" y="175" width="60" height="30" as="geometry" />
        </mxCell>
        <mxCell id="HBLjlnZqCEcEQzNPuWM3-102" style="rounded=0;orthogonalLoop=1;jettySize=auto;html=1;exitX=1;exitY=0.5;exitDx=0;exitDy=0;dashed=1;endArrow=open;endFill=0;" parent="HBLjlnZqCEcEQzNPuWM3-60" source="HBLjlnZqCEcEQzNPuWM3-9" target="HBLjlnZqCEcEQzNPuWM3-48" edge="1">
          <mxGeometry relative="1" as="geometry">
            <mxPoint x="210" y="200" as="sourcePoint" />
            <mxPoint x="152" y="232" as="targetPoint" />
          </mxGeometry>
        </mxCell>
        <mxCell id="HBLjlnZqCEcEQzNPuWM3-103" style="rounded=0;orthogonalLoop=1;jettySize=auto;html=1;exitX=1;exitY=0.5;exitDx=0;exitDy=0;dashed=1;endArrow=open;endFill=0;entryX=0;entryY=1;entryDx=0;entryDy=0;" parent="HBLjlnZqCEcEQzNPuWM3-60" source="HBLjlnZqCEcEQzNPuWM3-14" target="HBLjlnZqCEcEQzNPuWM3-48" edge="1">
          <mxGeometry relative="1" as="geometry">
            <mxPoint x="490" y="200" as="sourcePoint" />
            <mxPoint x="545" y="233" as="targetPoint" />
          </mxGeometry>
        </mxCell>
        <mxCell id="HBLjlnZqCEcEQzNPuWM3-50" value="アカウント管理" style="shape=folder;fontStyle=1;tabWidth=110;tabHeight=30;tabPosition=left;html=1;boundedLbl=1;labelInHeader=1;container=1;collapsible=0;whiteSpace=wrap;fillColor=none;" parent="1" vertex="1">
          <mxGeometry x="280" y="200" width="680" height="180" as="geometry" />
        </mxCell>
        <mxCell id="HBLjlnZqCEcEQzNPuWM3-51" value="" style="html=1;strokeColor=none;resizeWidth=1;resizeHeight=1;fillColor=none;part=1;connectable=0;allowArrows=0;deletable=0;whiteSpace=wrap;" parent="HBLjlnZqCEcEQzNPuWM3-50" vertex="1">
          <mxGeometry width="680" height="125.99999999999997" relative="1" as="geometry">
            <mxPoint y="30" as="offset" />
          </mxGeometry>
        </mxCell>
        <mxCell id="HBLjlnZqCEcEQzNPuWM3-6" value="アカウントを&lt;br&gt;作成する" style="ellipse;whiteSpace=wrap;html=1;" parent="HBLjlnZqCEcEQzNPuWM3-50" vertex="1">
          <mxGeometry x="160" y="70" width="120" height="80" as="geometry" />
        </mxCell>
        <mxCell id="HBLjlnZqCEcEQzNPuWM3-7" value="ログインする" style="ellipse;whiteSpace=wrap;html=1;" parent="HBLjlnZqCEcEQzNPuWM3-50" vertex="1">
          <mxGeometry x="400" y="70" width="120" height="80" as="geometry" />
        </mxCell>
        <mxCell id="HBLjlnZqCEcEQzNPuWM3-3" value="物流業者" style="shape=umlActor;verticalLabelPosition=bottom;verticalAlign=top;html=1;outlineConnect=0;" parent="1" vertex="1">
          <mxGeometry x="-137.5" y="1580" width="30" height="60" as="geometry" />
        </mxCell>
        <mxCell id="HBLjlnZqCEcEQzNPuWM3-26" value="物流業者に&lt;br&gt;作物の配送を&lt;br&gt;手配する" style="ellipse;whiteSpace=wrap;html=1;" parent="1" vertex="1">
          <mxGeometry x="-180" y="680" width="120" height="80" as="geometry" />
        </mxCell>
        <mxCell id="HBLjlnZqCEcEQzNPuWM3-27" value="作物を配送する" style="ellipse;whiteSpace=wrap;html=1;" parent="1" vertex="1">
          <mxGeometry x="-180" y="820" width="120" height="80" as="geometry" />
        </mxCell>
        <mxCell id="HBLjlnZqCEcEQzNPuWM3-30" value="システムの利用者" style="shape=umlActor;verticalLabelPosition=bottom;verticalAlign=top;html=1;outlineConnect=0;" parent="1" vertex="1">
          <mxGeometry x="615" y="40" width="30" height="60" as="geometry" />
        </mxCell>
        <mxCell id="HBLjlnZqCEcEQzNPuWM3-73" value="作物の出荷を&lt;br&gt;準備する" style="ellipse;whiteSpace=wrap;html=1;" parent="1" vertex="1">
          <mxGeometry x="-180" y="540" width="120" height="80" as="geometry" />
        </mxCell>
        <mxCell id="HBLjlnZqCEcEQzNPuWM3-74" value="" style="endArrow=none;html=1;rounded=0;entryX=0;entryY=1;entryDx=0;entryDy=0;entryPerimeter=0;exitX=0.5;exitY=0;exitDx=0;exitDy=0;startArrow=block;startFill=1;" parent="1" source="HBLjlnZqCEcEQzNPuWM3-6" target="HBLjlnZqCEcEQzNPuWM3-30" edge="1">
          <mxGeometry width="50" height="50" relative="1" as="geometry">
            <mxPoint x="100" y="250" as="sourcePoint" />
            <mxPoint x="150" y="200" as="targetPoint" />
          </mxGeometry>
        </mxCell>
        <mxCell id="HBLjlnZqCEcEQzNPuWM3-75" value="" style="endArrow=none;html=1;rounded=0;entryX=1;entryY=1;entryDx=0;entryDy=0;entryPerimeter=0;exitX=0.5;exitY=0;exitDx=0;exitDy=0;startArrow=block;startFill=1;" parent="1" source="HBLjlnZqCEcEQzNPuWM3-7" target="HBLjlnZqCEcEQzNPuWM3-30" edge="1">
          <mxGeometry width="50" height="50" relative="1" as="geometry">
            <mxPoint x="510" y="290" as="sourcePoint" />
            <mxPoint x="625" y="140" as="targetPoint" />
          </mxGeometry>
        </mxCell>
        <mxCell id="HBLjlnZqCEcEQzNPuWM3-77" value="生産者" style="shape=umlActor;verticalLabelPosition=bottom;verticalAlign=top;html=1;outlineConnect=0;" parent="1" vertex="1">
          <mxGeometry x="45" y="700" width="30" height="60" as="geometry" />
        </mxCell>
        <mxCell id="HBLjlnZqCEcEQzNPuWM3-78" style="rounded=0;orthogonalLoop=1;jettySize=auto;html=1;endArrow=block;endFill=0;exitX=0.5;exitY=0;exitDx=0;exitDy=0;exitPerimeter=0;edgeStyle=elbowEdgeStyle;" parent="1" source="HBLjlnZqCEcEQzNPuWM3-77" target="HBLjlnZqCEcEQzNPuWM3-30" edge="1">
          <mxGeometry relative="1" as="geometry">
            <mxPoint x="390" y="827.8260869565217" as="sourcePoint" />
            <mxPoint x="490" y="680" as="targetPoint" />
            <Array as="points">
              <mxPoint x="60" y="400" />
              <mxPoint x="60" y="390" />
            </Array>
          </mxGeometry>
        </mxCell>
        <mxCell id="HBLjlnZqCEcEQzNPuWM3-80" value="" style="endArrow=none;html=1;rounded=0;entryX=1;entryY=0.3333333333333333;entryDx=0;entryDy=0;entryPerimeter=0;exitX=0;exitY=0.5;exitDx=0;exitDy=0;startArrow=block;startFill=1;" parent="1" source="HBLjlnZqCEcEQzNPuWM3-10" target="HBLjlnZqCEcEQzNPuWM3-77" edge="1">
          <mxGeometry width="50" height="50" relative="1" as="geometry">
            <mxPoint x="750" y="290" as="sourcePoint" />
            <mxPoint x="655" y="140" as="targetPoint" />
          </mxGeometry>
        </mxCell>
        <mxCell id="HBLjlnZqCEcEQzNPuWM3-81" value="" style="endArrow=none;html=1;rounded=0;entryX=1;entryY=0.3333333333333333;entryDx=0;entryDy=0;entryPerimeter=0;exitX=0;exitY=0.5;exitDx=0;exitDy=0;startArrow=block;startFill=1;" parent="1" source="HBLjlnZqCEcEQzNPuWM3-36" target="HBLjlnZqCEcEQzNPuWM3-77" edge="1">
          <mxGeometry width="50" height="50" relative="1" as="geometry">
            <mxPoint x="330" y="530" as="sourcePoint" />
            <mxPoint x="120" y="730" as="targetPoint" />
          </mxGeometry>
        </mxCell>
        <mxCell id="HBLjlnZqCEcEQzNPuWM3-82" value="" style="endArrow=none;html=1;rounded=0;entryX=1;entryY=0.3333333333333333;entryDx=0;entryDy=0;entryPerimeter=0;exitX=0;exitY=0.5;exitDx=0;exitDy=0;startArrow=block;startFill=1;" parent="1" source="HBLjlnZqCEcEQzNPuWM3-11" target="HBLjlnZqCEcEQzNPuWM3-77" edge="1">
          <mxGeometry width="50" height="50" relative="1" as="geometry">
            <mxPoint x="330" y="690" as="sourcePoint" />
            <mxPoint x="120" y="730" as="targetPoint" />
          </mxGeometry>
        </mxCell>
        <mxCell id="HBLjlnZqCEcEQzNPuWM3-83" value="" style="endArrow=none;html=1;rounded=0;entryX=1;entryY=0.3333333333333333;entryDx=0;entryDy=0;entryPerimeter=0;exitX=0;exitY=0.5;exitDx=0;exitDy=0;startArrow=block;startFill=1;" parent="1" source="HBLjlnZqCEcEQzNPuWM3-24" target="HBLjlnZqCEcEQzNPuWM3-77" edge="1">
          <mxGeometry width="50" height="50" relative="1" as="geometry">
            <mxPoint x="330" y="850" as="sourcePoint" />
            <mxPoint x="120" y="730" as="targetPoint" />
          </mxGeometry>
        </mxCell>
        <mxCell id="HBLjlnZqCEcEQzNPuWM3-84" value="" style="endArrow=none;html=1;rounded=0;entryX=1;entryY=1;entryDx=0;entryDy=0;entryPerimeter=0;exitX=0;exitY=0.5;exitDx=0;exitDy=0;startArrow=block;startFill=1;" parent="1" source="HBLjlnZqCEcEQzNPuWM3-46" target="HBLjlnZqCEcEQzNPuWM3-77" edge="1">
          <mxGeometry width="50" height="50" relative="1" as="geometry">
            <mxPoint x="330" y="970" as="sourcePoint" />
            <mxPoint x="120" y="730" as="targetPoint" />
          </mxGeometry>
        </mxCell>
        <mxCell id="HBLjlnZqCEcEQzNPuWM3-91" value="" style="endArrow=none;html=1;rounded=0;entryX=0;entryY=0.3333333333333333;entryDx=0;entryDy=0;entryPerimeter=0;exitX=1;exitY=0.5;exitDx=0;exitDy=0;startArrow=block;startFill=1;" parent="1" source="HBLjlnZqCEcEQzNPuWM3-73" target="HBLjlnZqCEcEQzNPuWM3-77" edge="1">
          <mxGeometry width="50" height="50" relative="1" as="geometry">
            <mxPoint x="-155" y="470" as="sourcePoint" />
            <mxPoint x="-40" y="320" as="targetPoint" />
          </mxGeometry>
        </mxCell>
        <mxCell id="HBLjlnZqCEcEQzNPuWM3-92" value="" style="endArrow=none;html=1;rounded=0;entryX=0;entryY=0.3333333333333333;entryDx=0;entryDy=0;entryPerimeter=0;exitX=1;exitY=0.5;exitDx=0;exitDy=0;startArrow=block;startFill=1;" parent="1" source="HBLjlnZqCEcEQzNPuWM3-26" target="HBLjlnZqCEcEQzNPuWM3-77" edge="1">
          <mxGeometry width="50" height="50" relative="1" as="geometry">
            <mxPoint x="-50" y="590" as="sourcePoint" />
            <mxPoint x="90" y="730" as="targetPoint" />
          </mxGeometry>
        </mxCell>
        <mxCell id="HBLjlnZqCEcEQzNPuWM3-93" value="" style="endArrow=none;html=1;rounded=0;entryX=0;entryY=0.3333333333333333;entryDx=0;entryDy=0;entryPerimeter=0;startArrow=block;startFill=1;exitX=1;exitY=0;exitDx=0;exitDy=0;" parent="1" source="HBLjlnZqCEcEQzNPuWM3-27" target="HBLjlnZqCEcEQzNPuWM3-77" edge="1">
          <mxGeometry width="50" height="50" relative="1" as="geometry">
            <mxPoint x="-70" y="850" as="sourcePoint" />
            <mxPoint x="90" y="730" as="targetPoint" />
          </mxGeometry>
        </mxCell>
        <mxCell id="HBLjlnZqCEcEQzNPuWM3-96" value="" style="endArrow=none;html=1;rounded=0;startArrow=block;startFill=1;" parent="1" source="HBLjlnZqCEcEQzNPuWM3-27" target="HBLjlnZqCEcEQzNPuWM3-3" edge="1">
          <mxGeometry width="50" height="50" relative="1" as="geometry">
            <mxPoint x="-60" y="850" as="sourcePoint" />
            <mxPoint x="55" y="730" as="targetPoint" />
          </mxGeometry>
        </mxCell>
        <mxCell id="HBLjlnZqCEcEQzNPuWM3-21" value="予約した作物を&lt;br&gt;受取る" style="ellipse;whiteSpace=wrap;html=1;" parent="1" vertex="1">
          <mxGeometry x="1300" y="1200" width="120" height="80" as="geometry" />
        </mxCell>
        <mxCell id="HBLjlnZqCEcEQzNPuWM3-124" value="消費者" style="shape=umlActor;verticalLabelPosition=bottom;verticalAlign=top;html=1;outlineConnect=0;" parent="1" vertex="1">
          <mxGeometry x="1160" y="1220" width="30" height="60" as="geometry" />
        </mxCell>
        <mxCell id="HBLjlnZqCEcEQzNPuWM3-125" value="" style="endArrow=none;html=1;rounded=0;exitX=1;exitY=0.5;exitDx=0;exitDy=0;startArrow=block;startFill=1;" parent="1" source="HBLjlnZqCEcEQzNPuWM3-48" target="HBLjlnZqCEcEQzNPuWM3-124" edge="1">
          <mxGeometry width="50" height="50" relative="1" as="geometry">
            <mxPoint x="330" y="530" as="sourcePoint" />
            <mxPoint x="85" y="730" as="targetPoint" />
          </mxGeometry>
        </mxCell>
        <mxCell id="HBLjlnZqCEcEQzNPuWM3-126" style="rounded=0;orthogonalLoop=1;jettySize=auto;html=1;endArrow=block;endFill=0;entryX=1;entryY=0.3333333333333333;entryDx=0;entryDy=0;entryPerimeter=0;edgeStyle=elbowEdgeStyle;exitX=0.5;exitY=0;exitDx=0;exitDy=0;exitPerimeter=0;" parent="1" source="HBLjlnZqCEcEQzNPuWM3-124" target="HBLjlnZqCEcEQzNPuWM3-30" edge="1">
          <mxGeometry relative="1" as="geometry">
            <mxPoint x="1190" y="800" as="sourcePoint" />
            <mxPoint x="625" y="100" as="targetPoint" />
            <Array as="points">
              <mxPoint x="1175" y="1150" />
              <mxPoint x="1180" y="580" />
            </Array>
          </mxGeometry>
        </mxCell>
        <mxCell id="HBLjlnZqCEcEQzNPuWM3-130" value="" style="endArrow=none;html=1;rounded=0;exitX=1;exitY=0.5;exitDx=0;exitDy=0;startArrow=block;startFill=1;entryX=0;entryY=0.3333333333333333;entryDx=0;entryDy=0;entryPerimeter=0;" parent="1" source="HBLjlnZqCEcEQzNPuWM3-34" target="HBLjlnZqCEcEQzNPuWM3-124" edge="1">
          <mxGeometry width="50" height="50" relative="1" as="geometry">
            <mxPoint x="930" y="690" as="sourcePoint" />
            <mxPoint x="1171" y="1210" as="targetPoint" />
          </mxGeometry>
        </mxCell>
        <mxCell id="HBLjlnZqCEcEQzNPuWM3-131" value="" style="endArrow=none;html=1;rounded=0;exitX=0;exitY=0.5;exitDx=0;exitDy=0;startArrow=block;startFill=1;entryX=1;entryY=0.3333333333333333;entryDx=0;entryDy=0;entryPerimeter=0;" parent="1" source="HBLjlnZqCEcEQzNPuWM3-21" target="HBLjlnZqCEcEQzNPuWM3-124" edge="1">
          <mxGeometry width="50" height="50" relative="1" as="geometry">
            <mxPoint x="930" y="1250" as="sourcePoint" />
            <mxPoint x="1170" y="1246" as="targetPoint" />
          </mxGeometry>
        </mxCell>
        <mxCell id="HBLjlnZqCEcEQzNPuWM3-132" value="" style="endArrow=none;html=1;rounded=0;exitX=1;exitY=0.5;exitDx=0;exitDy=0;startArrow=block;startFill=1;entryX=0;entryY=0.3333333333333333;entryDx=0;entryDy=0;entryPerimeter=0;" parent="1" source="HBLjlnZqCEcEQzNPuWM3-12" target="HBLjlnZqCEcEQzNPuWM3-124" edge="1">
          <mxGeometry width="50" height="50" relative="1" as="geometry">
            <mxPoint x="930" y="1250" as="sourcePoint" />
            <mxPoint x="1170" y="1246" as="targetPoint" />
          </mxGeometry>
        </mxCell>
        <mxCell id="HBLjlnZqCEcEQzNPuWM3-133" value="" style="endArrow=none;html=1;rounded=0;exitX=1;exitY=0.5;exitDx=0;exitDy=0;startArrow=block;startFill=1;entryX=0;entryY=0.3333333333333333;entryDx=0;entryDy=0;entryPerimeter=0;" parent="1" source="HBLjlnZqCEcEQzNPuWM3-16" target="HBLjlnZqCEcEQzNPuWM3-124" edge="1">
          <mxGeometry width="50" height="50" relative="1" as="geometry">
            <mxPoint x="930" y="1430" as="sourcePoint" />
            <mxPoint x="1170" y="1246" as="targetPoint" />
          </mxGeometry>
        </mxCell>
        <mxCell id="HBLjlnZqCEcEQzNPuWM3-134" value="" style="endArrow=none;html=1;rounded=0;exitX=1;exitY=0.5;exitDx=0;exitDy=0;startArrow=block;startFill=1;entryX=0;entryY=0.3333333333333333;entryDx=0;entryDy=0;entryPerimeter=0;" parent="1" source="HBLjlnZqCEcEQzNPuWM3-17" target="HBLjlnZqCEcEQzNPuWM3-124" edge="1">
          <mxGeometry width="50" height="50" relative="1" as="geometry">
            <mxPoint x="930" y="1550" as="sourcePoint" />
            <mxPoint x="1170" y="1246" as="targetPoint" />
          </mxGeometry>
        </mxCell>
        <mxCell id="Iaiu_OEXaP2ZBZ2fu43b-2" value="" style="endArrow=none;html=1;rounded=0;exitX=1;exitY=0.5;exitDx=0;exitDy=0;startArrow=block;startFill=1;entryX=0;entryY=0.3333333333333333;entryDx=0;entryDy=0;entryPerimeter=0;" parent="1" source="HBLjlnZqCEcEQzNPuWM3-28" target="HBLjlnZqCEcEQzNPuWM3-124" edge="1">
          <mxGeometry width="50" height="50" relative="1" as="geometry">
            <mxPoint x="930" y="1670" as="sourcePoint" />
            <mxPoint x="1170" y="1246" as="targetPoint" />
          </mxGeometry>
        </mxCell>
        <mxCell id="n9GBccgK2UckjGoE69Ww-1" value="" style="endArrow=none;html=1;rounded=0;entryX=1;entryY=0.3333333333333333;entryDx=0;entryDy=0;entryPerimeter=0;exitX=0;exitY=0.5;exitDx=0;exitDy=0;startArrow=block;startFill=1;" parent="1" source="n9GBccgK2UckjGoE69Ww-2" target="HBLjlnZqCEcEQzNPuWM3-3" edge="1">
          <mxGeometry width="50" height="50" relative="1" as="geometry">
            <mxPoint x="330" y="1250" as="sourcePoint" />
            <mxPoint x="85" y="770" as="targetPoint" />
          </mxGeometry>
        </mxCell>
        <mxCell id="n9GBccgK2UckjGoE69Ww-10" value="" style="endArrow=none;html=1;rounded=0;startArrow=block;startFill=1;exitX=0;exitY=0.5;exitDx=0;exitDy=0;" parent="1" source="n9GBccgK2UckjGoE69Ww-9" target="HBLjlnZqCEcEQzNPuWM3-77" edge="1">
          <mxGeometry width="50" height="50" relative="1" as="geometry">
            <mxPoint x="80" y="1280" as="sourcePoint" />
            <mxPoint x="85" y="770" as="targetPoint" />
          </mxGeometry>
        </mxCell>
        <mxCell id="HBLjlnZqCEcEQzNPuWM3-69" value="" style="html=1;strokeColor=none;resizeWidth=1;resizeHeight=1;fillColor=none;part=1;connectable=0;allowArrows=0;deletable=0;whiteSpace=wrap;" parent="1" vertex="1">
          <mxGeometry x="280" y="1100" width="680" height="553.0000000000001" as="geometry">
            <mxPoint y="30" as="offset" />
          </mxGeometry>
        </mxCell>
        <mxCell id="HBLjlnZqCEcEQzNPuWM3-12" value="作物を予約する" style="ellipse;whiteSpace=wrap;html=1;" parent="1" vertex="1">
          <mxGeometry x="800" y="1380" width="120" height="80" as="geometry" />
        </mxCell>
        <mxCell id="HBLjlnZqCEcEQzNPuWM3-13" value="予約した&lt;br&gt;一覧を見る" style="ellipse;whiteSpace=wrap;html=1;" parent="1" vertex="1">
          <mxGeometry x="640" y="1140" width="120" height="80" as="geometry" />
        </mxCell>
        <mxCell id="HBLjlnZqCEcEQzNPuWM3-15" value="予約した&lt;br&gt;詳細を見る" style="ellipse;whiteSpace=wrap;html=1;" parent="1" vertex="1">
          <mxGeometry x="640" y="1260" width="120" height="80" as="geometry" />
        </mxCell>
        <mxCell id="HBLjlnZqCEcEQzNPuWM3-34" value="予約した内容を&lt;br&gt;確認する" style="ellipse;whiteSpace=wrap;html=1;" parent="1" vertex="1">
          <mxGeometry x="800" y="1200" width="120" height="80" as="geometry" />
        </mxCell>
        <mxCell id="HBLjlnZqCEcEQzNPuWM3-46" value="予約された内容を&lt;br&gt;確認する" style="ellipse;whiteSpace=wrap;html=1;" parent="1" vertex="1">
          <mxGeometry x="320" y="1200" width="120" height="80" as="geometry" />
        </mxCell>
        <mxCell id="HBLjlnZqCEcEQzNPuWM3-16" value="予約した内容を&lt;br&gt;編集する" style="ellipse;whiteSpace=wrap;html=1;" parent="1" vertex="1">
          <mxGeometry x="800" y="1500" width="120" height="80" as="geometry" />
        </mxCell>
        <mxCell id="HBLjlnZqCEcEQzNPuWM3-17" value="予約を&lt;br&gt;取り消す" style="ellipse;whiteSpace=wrap;html=1;" parent="1" vertex="1">
          <mxGeometry x="800" y="1620" width="120" height="80" as="geometry" />
        </mxCell>
        <mxCell id="HBLjlnZqCEcEQzNPuWM3-104" style="rounded=0;orthogonalLoop=1;jettySize=auto;html=1;exitX=0;exitY=0.5;exitDx=0;exitDy=0;dashed=1;endArrow=open;endFill=0;entryX=1;entryY=0;entryDx=0;entryDy=0;" parent="1" source="25qe6i5wLPSkatepINVU-1" target="HBLjlnZqCEcEQzNPuWM3-46" edge="1">
          <mxGeometry relative="1" as="geometry">
            <mxPoint x="480" y="1180" as="sourcePoint" />
            <mxPoint x="432" y="662" as="targetPoint" />
          </mxGeometry>
        </mxCell>
        <mxCell id="HBLjlnZqCEcEQzNPuWM3-105" value="&amp;lt;&amp;lt;include&amp;gt;&amp;gt;" style="text;html=1;strokeColor=none;fillColor=none;align=center;verticalAlign=middle;whiteSpace=wrap;rounded=0;" parent="1" vertex="1">
          <mxGeometry x="410" y="1165" width="60" height="30" as="geometry" />
        </mxCell>
        <mxCell id="HBLjlnZqCEcEQzNPuWM3-106" value="&amp;lt;&amp;lt;include&amp;gt;&amp;gt;" style="text;html=1;strokeColor=none;fillColor=none;align=center;verticalAlign=middle;whiteSpace=wrap;rounded=0;" parent="1" vertex="1">
          <mxGeometry x="410" y="1290" width="60" height="30" as="geometry" />
        </mxCell>
        <mxCell id="HBLjlnZqCEcEQzNPuWM3-107" style="rounded=0;orthogonalLoop=1;jettySize=auto;html=1;exitX=0;exitY=0.5;exitDx=0;exitDy=0;dashed=1;endArrow=open;endFill=0;entryX=1;entryY=1;entryDx=0;entryDy=0;" parent="1" source="25qe6i5wLPSkatepINVU-2" target="HBLjlnZqCEcEQzNPuWM3-46" edge="1">
          <mxGeometry relative="1" as="geometry">
            <mxPoint x="480" y="1300" as="sourcePoint" />
            <mxPoint x="432" y="1222" as="targetPoint" />
          </mxGeometry>
        </mxCell>
        <mxCell id="HBLjlnZqCEcEQzNPuWM3-108" value="&amp;lt;&amp;lt;include&amp;gt;&amp;gt;" style="text;html=1;strokeColor=none;fillColor=none;align=center;verticalAlign=middle;whiteSpace=wrap;rounded=0;" parent="1" vertex="1">
          <mxGeometry x="780" y="1165" width="60" height="30" as="geometry" />
        </mxCell>
        <mxCell id="HBLjlnZqCEcEQzNPuWM3-109" style="rounded=0;orthogonalLoop=1;jettySize=auto;html=1;exitX=1;exitY=0.5;exitDx=0;exitDy=0;dashed=1;endArrow=open;endFill=0;entryX=0;entryY=0;entryDx=0;entryDy=0;" parent="1" source="HBLjlnZqCEcEQzNPuWM3-13" target="HBLjlnZqCEcEQzNPuWM3-34" edge="1">
          <mxGeometry relative="1" as="geometry">
            <mxPoint x="490" y="1190" as="sourcePoint" />
            <mxPoint x="432" y="1222" as="targetPoint" />
          </mxGeometry>
        </mxCell>
        <mxCell id="HBLjlnZqCEcEQzNPuWM3-110" style="rounded=0;orthogonalLoop=1;jettySize=auto;html=1;exitX=1;exitY=0.5;exitDx=0;exitDy=0;dashed=1;endArrow=open;endFill=0;entryX=0;entryY=1;entryDx=0;entryDy=0;" parent="1" source="HBLjlnZqCEcEQzNPuWM3-15" target="HBLjlnZqCEcEQzNPuWM3-34" edge="1">
          <mxGeometry relative="1" as="geometry">
            <mxPoint x="770" y="1190" as="sourcePoint" />
            <mxPoint x="828" y="1222" as="targetPoint" />
          </mxGeometry>
        </mxCell>
        <mxCell id="HBLjlnZqCEcEQzNPuWM3-111" value="&amp;lt;&amp;lt;include&amp;gt;&amp;gt;" style="text;html=1;strokeColor=none;fillColor=none;align=center;verticalAlign=middle;whiteSpace=wrap;rounded=0;" parent="1" vertex="1">
          <mxGeometry x="790" y="1290" width="60" height="30" as="geometry" />
        </mxCell>
        <mxCell id="HBLjlnZqCEcEQzNPuWM3-28" value="作物の受取りを&lt;br&gt;連絡する" style="ellipse;whiteSpace=wrap;html=1;" parent="1" vertex="1">
          <mxGeometry x="800" y="1740" width="120" height="80" as="geometry" />
        </mxCell>
        <mxCell id="25qe6i5wLPSkatepINVU-1" value="予約された&lt;br&gt;一覧を見る" style="ellipse;whiteSpace=wrap;html=1;" parent="1" vertex="1">
          <mxGeometry x="480" y="1140" width="120" height="80" as="geometry" />
        </mxCell>
        <mxCell id="25qe6i5wLPSkatepINVU-2" value="予約された&lt;br&gt;詳細を見る" style="ellipse;whiteSpace=wrap;html=1;" parent="1" vertex="1">
          <mxGeometry x="480" y="1260" width="120" height="80" as="geometry" />
        </mxCell>
        <mxCell id="n9GBccgK2UckjGoE69Ww-2" value="配送登録された&lt;br&gt;予約内容を&lt;br&gt;確認する" style="ellipse;whiteSpace=wrap;html=1;" parent="1" vertex="1">
          <mxGeometry x="320" y="1560" width="120" height="80" as="geometry" />
        </mxCell>
        <mxCell id="n9GBccgK2UckjGoE69Ww-3" style="rounded=0;orthogonalLoop=1;jettySize=auto;html=1;exitX=0;exitY=0.5;exitDx=0;exitDy=0;dashed=1;endArrow=open;endFill=0;entryX=1;entryY=0;entryDx=0;entryDy=0;" parent="1" source="n9GBccgK2UckjGoE69Ww-7" target="n9GBccgK2UckjGoE69Ww-2" edge="1">
          <mxGeometry relative="1" as="geometry">
            <mxPoint x="480" y="1540" as="sourcePoint" />
            <mxPoint x="432" y="1022" as="targetPoint" />
          </mxGeometry>
        </mxCell>
        <mxCell id="n9GBccgK2UckjGoE69Ww-4" value="&amp;lt;&amp;lt;include&amp;gt;&amp;gt;" style="text;html=1;strokeColor=none;fillColor=none;align=center;verticalAlign=middle;whiteSpace=wrap;rounded=0;" parent="1" vertex="1">
          <mxGeometry x="410" y="1525" width="60" height="30" as="geometry" />
        </mxCell>
        <mxCell id="n9GBccgK2UckjGoE69Ww-5" value="&amp;lt;&amp;lt;include&amp;gt;&amp;gt;" style="text;html=1;strokeColor=none;fillColor=none;align=center;verticalAlign=middle;whiteSpace=wrap;rounded=0;" parent="1" vertex="1">
          <mxGeometry x="410" y="1650" width="60" height="30" as="geometry" />
        </mxCell>
        <mxCell id="n9GBccgK2UckjGoE69Ww-6" style="rounded=0;orthogonalLoop=1;jettySize=auto;html=1;exitX=0;exitY=0.5;exitDx=0;exitDy=0;dashed=1;endArrow=open;endFill=0;entryX=1;entryY=1;entryDx=0;entryDy=0;" parent="1" source="n9GBccgK2UckjGoE69Ww-8" target="n9GBccgK2UckjGoE69Ww-2" edge="1">
          <mxGeometry relative="1" as="geometry">
            <mxPoint x="480" y="1660" as="sourcePoint" />
            <mxPoint x="432" y="1582" as="targetPoint" />
          </mxGeometry>
        </mxCell>
        <mxCell id="n9GBccgK2UckjGoE69Ww-7" value="予約された&lt;br&gt;一覧を見る" style="ellipse;whiteSpace=wrap;html=1;" parent="1" vertex="1">
          <mxGeometry x="480" y="1500" width="120" height="80" as="geometry" />
        </mxCell>
        <mxCell id="n9GBccgK2UckjGoE69Ww-8" value="予約された&lt;br&gt;詳細を見る" style="ellipse;whiteSpace=wrap;html=1;" parent="1" vertex="1">
          <mxGeometry x="480" y="1620" width="120" height="80" as="geometry" />
        </mxCell>
        <mxCell id="n9GBccgK2UckjGoE69Ww-9" value="作物の出荷を&lt;br&gt;連絡する" style="ellipse;whiteSpace=wrap;html=1;" parent="1" vertex="1">
          <mxGeometry x="320" y="1380" width="120" height="80" as="geometry" />
        </mxCell>
        <mxCell id="eFqh1Tti6uva1nNO-c8B-4" style="rounded=0;orthogonalLoop=1;jettySize=auto;html=1;endArrow=block;endFill=0;entryX=0;entryY=0.3333333333333333;entryDx=0;entryDy=0;entryPerimeter=0;edgeStyle=elbowEdgeStyle;exitX=0;exitY=0.3333333333333333;exitDx=0;exitDy=0;exitPerimeter=0;" parent="1" source="HBLjlnZqCEcEQzNPuWM3-3" target="HBLjlnZqCEcEQzNPuWM3-30" edge="1">
          <mxGeometry relative="1" as="geometry">
            <mxPoint x="-200" y="1030" as="sourcePoint" />
            <mxPoint x="495" y="130" as="targetPoint" />
            <Array as="points">
              <mxPoint x="-240" y="1200" />
              <mxPoint x="-60" y="430" />
            </Array>
          </mxGeometry>
        </mxCell>
        <mxCell id="PbB1XK9wsNXT5uvgoY7y-1" value="引渡し業者" style="shape=umlActor;verticalLabelPosition=bottom;verticalAlign=top;html=1;outlineConnect=0;" parent="1" vertex="1">
          <mxGeometry x="-190" y="1820" width="30" height="60" as="geometry" />
        </mxCell>
        <mxCell id="PbB1XK9wsNXT5uvgoY7y-2" value="引渡された&lt;br&gt;予約内容を&lt;br&gt;確認する" style="ellipse;whiteSpace=wrap;html=1;" parent="1" vertex="1">
          <mxGeometry x="320" y="1800" width="120" height="80" as="geometry" />
        </mxCell>
        <mxCell id="PbB1XK9wsNXT5uvgoY7y-3" style="rounded=0;orthogonalLoop=1;jettySize=auto;html=1;exitX=0;exitY=0.5;exitDx=0;exitDy=0;dashed=1;endArrow=open;endFill=0;entryX=1;entryY=0;entryDx=0;entryDy=0;" parent="1" source="PbB1XK9wsNXT5uvgoY7y-7" target="PbB1XK9wsNXT5uvgoY7y-2" edge="1">
          <mxGeometry relative="1" as="geometry">
            <mxPoint x="480" y="1780" as="sourcePoint" />
            <mxPoint x="432" y="1262" as="targetPoint" />
          </mxGeometry>
        </mxCell>
        <mxCell id="PbB1XK9wsNXT5uvgoY7y-4" value="&amp;lt;&amp;lt;include&amp;gt;&amp;gt;" style="text;html=1;strokeColor=none;fillColor=none;align=center;verticalAlign=middle;whiteSpace=wrap;rounded=0;" parent="1" vertex="1">
          <mxGeometry x="410" y="1765" width="60" height="30" as="geometry" />
        </mxCell>
        <mxCell id="PbB1XK9wsNXT5uvgoY7y-5" value="&amp;lt;&amp;lt;include&amp;gt;&amp;gt;" style="text;html=1;strokeColor=none;fillColor=none;align=center;verticalAlign=middle;whiteSpace=wrap;rounded=0;" parent="1" vertex="1">
          <mxGeometry x="410" y="1890" width="60" height="30" as="geometry" />
        </mxCell>
        <mxCell id="PbB1XK9wsNXT5uvgoY7y-6" style="rounded=0;orthogonalLoop=1;jettySize=auto;html=1;exitX=0;exitY=0.5;exitDx=0;exitDy=0;dashed=1;endArrow=open;endFill=0;entryX=1;entryY=1;entryDx=0;entryDy=0;" parent="1" source="PbB1XK9wsNXT5uvgoY7y-8" target="PbB1XK9wsNXT5uvgoY7y-2" edge="1">
          <mxGeometry relative="1" as="geometry">
            <mxPoint x="480" y="1900" as="sourcePoint" />
            <mxPoint x="432" y="1822" as="targetPoint" />
          </mxGeometry>
        </mxCell>
        <mxCell id="PbB1XK9wsNXT5uvgoY7y-7" value="予約された&lt;br&gt;一覧を見る" style="ellipse;whiteSpace=wrap;html=1;" parent="1" vertex="1">
          <mxGeometry x="480" y="1740" width="120" height="80" as="geometry" />
        </mxCell>
        <mxCell id="PbB1XK9wsNXT5uvgoY7y-8" value="予約された&lt;br&gt;詳細を見る" style="ellipse;whiteSpace=wrap;html=1;" parent="1" vertex="1">
          <mxGeometry x="480" y="1860" width="120" height="80" as="geometry" />
        </mxCell>
        <mxCell id="PbB1XK9wsNXT5uvgoY7y-9" value="作物の配送方法を&lt;br style=&quot;border-color: var(--border-color);&quot;&gt;連絡する" style="ellipse;whiteSpace=wrap;html=1;" parent="1" vertex="1">
          <mxGeometry x="480" y="1380" width="120" height="80" as="geometry" />
        </mxCell>
        <mxCell id="PbB1XK9wsNXT5uvgoY7y-10" value="&amp;lt;&amp;lt;include&amp;gt;&amp;gt;" style="text;html=1;strokeColor=none;fillColor=none;align=center;verticalAlign=middle;whiteSpace=wrap;rounded=0;" parent="1" vertex="1">
          <mxGeometry x="430" y="1380" width="60" height="30" as="geometry" />
        </mxCell>
        <mxCell id="PbB1XK9wsNXT5uvgoY7y-11" style="rounded=0;orthogonalLoop=1;jettySize=auto;html=1;exitX=0;exitY=0.5;exitDx=0;exitDy=0;dashed=1;endArrow=open;endFill=0;" parent="1" source="PbB1XK9wsNXT5uvgoY7y-9" edge="1">
          <mxGeometry relative="1" as="geometry">
            <mxPoint x="500" y="1452" as="sourcePoint" />
            <mxPoint x="440" y="1420" as="targetPoint" />
          </mxGeometry>
        </mxCell>
        <mxCell id="PbB1XK9wsNXT5uvgoY7y-12" value="" style="endArrow=none;html=1;rounded=0;entryX=1;entryY=0.3333333333333333;entryDx=0;entryDy=0;entryPerimeter=0;exitX=0;exitY=0.5;exitDx=0;exitDy=0;startArrow=block;startFill=1;" parent="1" source="PbB1XK9wsNXT5uvgoY7y-2" target="PbB1XK9wsNXT5uvgoY7y-1" edge="1">
          <mxGeometry width="50" height="50" relative="1" as="geometry">
            <mxPoint x="330" y="1610" as="sourcePoint" />
            <mxPoint x="85" y="1610" as="targetPoint" />
          </mxGeometry>
        </mxCell>
        <mxCell id="PbB1XK9wsNXT5uvgoY7y-13" value="作物を&lt;br&gt;預かっていることを&lt;br&gt;連絡する" style="ellipse;whiteSpace=wrap;html=1;" parent="1" vertex="1">
          <mxGeometry x="320" y="1980" width="120" height="80" as="geometry" />
        </mxCell>
        <mxCell id="PbB1XK9wsNXT5uvgoY7y-17" value="" style="endArrow=none;html=1;rounded=0;entryX=1;entryY=0.3333333333333333;entryDx=0;entryDy=0;entryPerimeter=0;exitX=0;exitY=0.5;exitDx=0;exitDy=0;startArrow=block;startFill=1;" parent="1" source="PbB1XK9wsNXT5uvgoY7y-13" target="PbB1XK9wsNXT5uvgoY7y-1" edge="1">
          <mxGeometry width="50" height="50" relative="1" as="geometry">
            <mxPoint x="330" y="1850" as="sourcePoint" />
            <mxPoint x="85" y="1850" as="targetPoint" />
          </mxGeometry>
        </mxCell>
        <mxCell id="PbB1XK9wsNXT5uvgoY7y-18" style="rounded=0;orthogonalLoop=1;jettySize=auto;html=1;endArrow=block;endFill=0;edgeStyle=elbowEdgeStyle;exitX=0;exitY=0.3333333333333333;exitDx=0;exitDy=0;exitPerimeter=0;entryX=0.25;entryY=0.1;entryDx=0;entryDy=0;entryPerimeter=0;" parent="1" target="HBLjlnZqCEcEQzNPuWM3-30" edge="1">
          <mxGeometry relative="1" as="geometry">
            <mxPoint x="50" y="1840" as="sourcePoint" />
            <mxPoint x="610" y="-130" as="targetPoint" />
            <Array as="points">
              <mxPoint x="-250" y="960" />
              <mxPoint x="-45" y="440" />
            </Array>
          </mxGeometry>
        </mxCell>
        <mxCell id="bS6_NpchV64USqUhG249-6" value="物流管理" style="shape=folder;fontStyle=1;tabWidth=110;tabHeight=30;tabPosition=left;html=1;boundedLbl=1;labelInHeader=1;container=0;collapsible=0;whiteSpace=wrap;fillColor=none;movable=1;resizable=1;rotatable=1;deletable=1;editable=1;locked=0;connectable=1;" parent="1" vertex="1">
          <mxGeometry x="280" y="2120" width="680" height="440" as="geometry" />
        </mxCell>
        <mxCell id="bS6_NpchV64USqUhG249-16" value="" style="endArrow=none;html=1;rounded=0;startArrow=block;startFill=1;exitX=0;exitY=0.5;exitDx=0;exitDy=0;edgeStyle=orthogonalEdgeStyle;curved=1;" parent="1" source="bS6_NpchV64USqUhG249-10" target="HBLjlnZqCEcEQzNPuWM3-77" edge="1">
          <mxGeometry width="50" height="50" relative="1" as="geometry">
            <mxPoint x="200" y="1490" as="sourcePoint" />
            <mxPoint x="81" y="770" as="targetPoint" />
          </mxGeometry>
        </mxCell>
        <mxCell id="bS6_NpchV64USqUhG249-19" value="" style="endArrow=none;html=1;rounded=0;startArrow=block;startFill=1;exitX=0;exitY=0.5;exitDx=0;exitDy=0;edgeStyle=orthogonalEdgeStyle;curved=1;" parent="1" source="bS6_NpchV64USqUhG249-12" target="HBLjlnZqCEcEQzNPuWM3-3" edge="1">
          <mxGeometry width="50" height="50" relative="1" as="geometry">
            <mxPoint x="330" y="2340" as="sourcePoint" />
            <mxPoint x="70" y="790" as="targetPoint" />
          </mxGeometry>
        </mxCell>
        <mxCell id="bS6_NpchV64USqUhG249-7" value="" style="html=1;strokeColor=none;resizeWidth=1;resizeHeight=1;fillColor=none;part=1;connectable=0;allowArrows=0;deletable=0;whiteSpace=wrap;" parent="1" vertex="1">
          <mxGeometry x="280" y="2150" width="680" height="307.9999999999999" as="geometry">
            <mxPoint y="30" as="offset" />
          </mxGeometry>
        </mxCell>
        <mxCell id="bS6_NpchV64USqUhG249-10" value="生産者向けの&lt;br&gt;物流設定を確認/変更する" style="ellipse;whiteSpace=wrap;html=1;" parent="1" vertex="1">
          <mxGeometry x="320" y="2200" width="120" height="80" as="geometry" />
        </mxCell>
        <mxCell id="bS6_NpchV64USqUhG249-12" value="物流業者向けの&lt;br style=&quot;border-color: var(--border-color);&quot;&gt;物流設定を確認/設定する" style="ellipse;whiteSpace=wrap;html=1;" parent="1" vertex="1">
          <mxGeometry x="320" y="2320" width="120" height="80" as="geometry" />
        </mxCell>
        <mxCell id="bS6_NpchV64USqUhG249-14" value="システム共通となる&lt;br&gt;混載定義をする" style="ellipse;whiteSpace=wrap;html=1;" parent="1" vertex="1">
          <mxGeometry x="800" y="2320" width="120" height="80" as="geometry" />
        </mxCell>
        <mxCell id="bZwwkdTpdhXs407dC2e_-1" value="引渡し業者向けの&lt;br style=&quot;border-color: var(--border-color);&quot;&gt;物流設定を確認/変更する" style="ellipse;whiteSpace=wrap;html=1;" parent="1" vertex="1">
          <mxGeometry x="320" y="2440" width="120" height="80" as="geometry" />
        </mxCell>
        <mxCell id="bZwwkdTpdhXs407dC2e_-3" value="" style="endArrow=none;html=1;rounded=0;startArrow=block;startFill=1;exitX=0;exitY=0.5;exitDx=0;exitDy=0;edgeStyle=orthogonalEdgeStyle;curved=1;" parent="1" source="bZwwkdTpdhXs407dC2e_-1" target="PbB1XK9wsNXT5uvgoY7y-1" edge="1">
          <mxGeometry width="50" height="50" relative="1" as="geometry">
            <mxPoint x="330" y="2430" as="sourcePoint" />
            <mxPoint x="-112" y="1650" as="targetPoint" />
          </mxGeometry>
        </mxCell>
      </root>
    </mxGraphModel>
  </diagram>
</mxfile>
